REM DIRINDEX 1\2\5,1\2\6,1\2\7,1\2\8,1\3\9,1\3\10,1\3\11,1\4\12,1\4\13,1\4\14,1\4\15,1\4\16
REM DIRNAME cjc034,folder01,folder02,folder03,folder04,folder05,folder06,folder07,folder08,folder09,folder10,folder11,folder12,folder13,folder14,folder15
TITLE ""
FILE "1200_sec03_0845_0853.mp3" MP3
  TRACK 01 AUDIO
    TITLE "0:"
    INDEX 01 00:00:00
  TRACK 02 AUDIO
    TITLE "12:cjc034_07049"
    INDEX 01 00:00:21
  TRACK 03 AUDIO
    TITLE "0:"
    INDEX 01 00:01:30
  TRACK 04 AUDIO
    TITLE "13:cjc034_07050"
    INDEX 01 00:01:66
  TRACK 05 AUDIO
    TITLE "0:"
    INDEX 01 00:04:03
  TRACK 06 AUDIO
    TITLE "14:cjc034_07051"
    INDEX 01 00:04:38
  TRACK 07 AUDIO
    TITLE "0:"
    INDEX 01 00:05:46
  TRACK 08 AUDIO
    TITLE "15:cjc034_07052"
    INDEX 01 00:06:06
  TRACK 09 AUDIO
    TITLE "0:"
    INDEX 01 00:09:65
  TRACK 10 AUDIO
    TITLE "12:cjc034_07053"
    INDEX 01 00:11:25
  TRACK 11 AUDIO
    TITLE "0:"
    INDEX 01 00:12:26
  TRACK 12 AUDIO
    TITLE "13:cjc034_07054"
    INDEX 01 00:12:60
  TRACK 13 AUDIO
    TITLE "0:"
    INDEX 01 00:14:60
  TRACK 14 AUDIO
    TITLE "14:cjc034_07055"
    INDEX 01 00:15:21
  TRACK 15 AUDIO
    TITLE "0:"
    INDEX 01 00:16:24
  TRACK 16 AUDIO
    TITLE "15:cjc034_07056"
    INDEX 01 00:16:55
  TRACK 17 AUDIO
    TITLE "0:"
    INDEX 01 00:20:67
  TRACK 18 AUDIO
    TITLE "12:cjc034_07057"
    INDEX 01 00:22:30
  TRACK 19 AUDIO
    TITLE "0:"
    INDEX 01 00:23:36
  TRACK 20 AUDIO
    TITLE "13:cjc034_07058"
    INDEX 01 00:23:73
  TRACK 21 AUDIO
    TITLE "0:"
    INDEX 01 00:24:57
  TRACK 22 AUDIO
    TITLE "14:cjc034_07059"
    INDEX 01 00:25:19
  TRACK 23 AUDIO
    TITLE "0:"
    INDEX 01 00:26:28
  TRACK 24 AUDIO
    TITLE "15:cjc034_07060"
    INDEX 01 00:26:62
  TRACK 25 AUDIO
    TITLE "0:"
    INDEX 01 00:30:24
  TRACK 26 AUDIO
    TITLE "12:cjc034_07061"
    INDEX 01 00:31:59
  TRACK 27 AUDIO
    TITLE "0:"
    INDEX 01 00:32:72
  TRACK 28 AUDIO
    TITLE "13:cjc034_07062"
    INDEX 01 00:33:32
  TRACK 29 AUDIO
    TITLE "0:"
    INDEX 01 00:36:38
  TRACK 30 AUDIO
    TITLE "14:cjc034_07063"
    INDEX 01 00:36:74
  TRACK 31 AUDIO
    TITLE "0:"
    INDEX 01 00:38:14
  TRACK 32 AUDIO
    TITLE "15:cjc034_07064"
    INDEX 01 00:38:47
  TRACK 33 AUDIO
    TITLE "0:"
    INDEX 01 00:42:29
  TRACK 34 AUDIO
    TITLE "16:cjc034_07065"
    INDEX 01 00:43:62
  TRACK 35 AUDIO
    TITLE "0:"
    INDEX 01 00:48:61
  TRACK 36 AUDIO
    TITLE "12:cjc034_07066"
    INDEX 01 00:49:65
  TRACK 37 AUDIO
    TITLE "0:"
    INDEX 01 00:51:26
  TRACK 38 AUDIO
    TITLE "13:cjc034_07067"
    INDEX 01 00:51:58
  TRACK 39 AUDIO
    TITLE "0:"
    INDEX 01 00:53:00
  TRACK 40 AUDIO
    TITLE "14:cjc034_07068"
    INDEX 01 00:53:33
  TRACK 41 AUDIO
    TITLE "0:"
    INDEX 01 00:54:68
  TRACK 42 AUDIO
    TITLE "15:cjc034_07069"
    INDEX 01 00:55:28
  TRACK 43 AUDIO
    TITLE "0:"
    INDEX 01 00:59:51
  TRACK 44 AUDIO
    TITLE "12:cjc034_07070"
    INDEX 01 01:01:09
  TRACK 45 AUDIO
    TITLE "0:"
    INDEX 01 01:02:40
  TRACK 46 AUDIO
    TITLE "13:cjc034_07071"
    INDEX 01 01:03:00
  TRACK 47 AUDIO
    TITLE "0:"
    INDEX 01 01:06:12
  TRACK 48 AUDIO
    TITLE "14:cjc034_07072"
    INDEX 01 01:06:45
  TRACK 49 AUDIO
    TITLE "0:"
    INDEX 01 01:08:03
  TRACK 50 AUDIO
    TITLE "15:cjc034_07073"
    INDEX 01 01:08:35
  TRACK 51 AUDIO
    TITLE "0:"
    INDEX 01 01:12:19
  TRACK 52 AUDIO
    TITLE "12:cjc034_07074"
    INDEX 01 01:13:53
  TRACK 53 AUDIO
    TITLE "0:"
    INDEX 01 01:15:05
  TRACK 54 AUDIO
    TITLE "13:cjc034_07075"
    INDEX 01 01:15:35
  TRACK 55 AUDIO
    TITLE "0:"
    INDEX 01 01:17:45
  TRACK 56 AUDIO
    TITLE "14:cjc034_07076"
    INDEX 01 01:18:04
  TRACK 57 AUDIO
    TITLE "0:"
    INDEX 01 01:19:28
  TRACK 58 AUDIO
    TITLE "15:cjc034_07077"
    INDEX 01 01:19:62
  TRACK 59 AUDIO
    TITLE "0:"
    INDEX 01 01:24:36
  TRACK 60 AUDIO
    TITLE "12:cjc034_07078"
    INDEX 01 01:25:68
  TRACK 61 AUDIO
    TITLE "0:"
    INDEX 01 01:27:30
  TRACK 62 AUDIO
    TITLE "13:cjc034_07079"
    INDEX 01 01:27:65
  TRACK 63 AUDIO
    TITLE "0:"
    INDEX 01 01:29:17
  TRACK 64 AUDIO
    TITLE "14:cjc034_07080"
    INDEX 01 01:29:48
  TRACK 65 AUDIO
    TITLE "0:"
    INDEX 01 01:31:12
  TRACK 66 AUDIO
    TITLE "15:cjc034_07081"
    INDEX 01 01:31:45
  TRACK 67 AUDIO
    TITLE "0:"
    INDEX 01 01:36:41
  TRACK 68 AUDIO
    TITLE "12:cjc034_07082"
    INDEX 01 01:38:00
  TRACK 69 AUDIO
    TITLE "0:"
    INDEX 01 01:39:27
  TRACK 70 AUDIO
    TITLE "13:cjc034_07083"
    INDEX 01 01:39:64
  TRACK 71 AUDIO
    TITLE "0:"
    INDEX 01 01:40:68
  TRACK 72 AUDIO
    TITLE "14:cjc034_07084"
    INDEX 01 01:41:26
  TRACK 73 AUDIO
    TITLE "0:"
    INDEX 01 01:42:53
  TRACK 74 AUDIO
    TITLE "15:cjc034_07085"
    INDEX 01 01:43:15
  TRACK 75 AUDIO
    TITLE "0:"
    INDEX 01 01:48:36
